<?xml version="1.0"?>
<svg version="1.1" xmlns="http://www.w3.org/2000/svg" width="200" height="50" style=""><path fill="#" d="M15.953125,19.203125q0-0.25,0.1796875-0.4140625t0.421875-0.2578125t0.53125-0.125t0.5078125-0.03125q0.453125,0,0.9609375,0.125t0.7578125,0.546875q0.453125,0.765625,0.6640625,1.8203125t0.3984375,2.0234375q0.28125,1.34375,0.71875,2.8125t0.9140625,2.9921875t0.9765625,2.9921875t0.875,2.75q0.453125-1.890625,0.8359375-3.875t0.734375-3.96875t0.734375-3.96875t0.8359375-3.890625q0.09375-0.453125,0.140625-1.140625t0.1953125-1.328125t0.4296875-1.1015625t0.859375-0.4609375q0.609375,0,0.8203125,0.3359375t0.2109375,0.9765625q-0.15625,1.765625-0.5078125,3.5t-0.6484375,3.46875q-0.421875,2.140625-0.9140625,4.2890625t-0.921875,4.3046875t-0.734375,4.3203125t-0.3671875,4.3359375q0.03125,0.09375,0.09375,0.21875t0.0625,0.1875q0,0.1875-0.171875,0.3515625t-0.4296875,0.28125t-0.5625,0.1796875t-0.5703125,0.0625q-0.25,0-0.5703125-0.03125t-0.640625-0.1171875t-0.5625-0.2265625t-0.3046875-0.359375q-0.25-0.734375-0.4609375-1.4296875t-0.3984375-1.4296875q-0.890625-3.203125-1.8671875-6.2890625t-1.8046875-6.2734375q-0.390625-1.4375-0.5859375-2.8203125t-0.6328125-2.7265625q0.0625,0.125,0.0625,0.203125q-0.0625-0.21875-0.125-0.4140625t-0.140625-0.4296875q0,0.0625,0.015625,0.078125t0.015625,0.046875q0-0.03125-0.015625-0.046875t-0.015625-0.046875z M32.85421875,34.796875q0-1.4375,0.3359375-2.8203125t0.5703125-2.7578125q0.0625-0.359375,0.4921875-0.4453125t0.7265625-0.0859375q0.515625,0,0.828125,0.15625q0.125,0.0625,0.234375,0.140625t0.109375,0.203125q0,1.34375-0.3203125,2.625t-0.3203125,2.71875q0,0.484375,0.0703125,0.9140625t0.1328125,0.8515625l0.09375,0.453125q0,0.125,0.015625,0.21875t0.046875,0.21875q0,0.28125-0.3984375,0.3828125t-0.6953125,0.1015625q-0.453125,0-0.8359375-0.1796875t-0.6015625-0.6171875l-0.21875-0.453125q-0.1875-0.359375-0.1875-0.8046875t-0.078125-0.8203125z M33.85421875,25.390625l0-0.296875q0-0.734375,0.3671875-1.3125t1.1015625-0.578125q0.09375,0,0.1796875,0.015625t0.1796875,0.015625q0.1875,0.03125,0.4921875,0.1484375t0.3046875,0.3671875l0,0.03125q-0.0625,0.125-0.078125,0.2578125t-0.078125,0.2265625l0.03125-0.03125q-0.1875,0.484375-0.3046875,0.78125t-0.2578125,0.4765625t-0.3515625,0.2578125t-0.6015625,0.078125q-0.0625,0-0.21875-0.015625t-0.3359375-0.0625t-0.3046875-0.125t-0.125-0.234375z M39.6928125,35.25l0-0.453125q0-0.5625,0.03125-1.0625q0.03125-0.703125,0.03125-1.15625q0-0.25,0.03125-0.5703125t0.15625-0.5078125q0.15625-0.15625,0.3671875-0.3203125t0.4609375-0.1640625q0.796875,0,1.25,0.1796875t0.484375,0.7421875l0.0625,0.484375q0.28125-0.671875,0.75-1.6640625t1.0859375-1.890625t1.390625-1.53125t1.6328125-0.6328125q0.796875,0,1.3125,0.75t0.8203125,1.9140625t0.4296875,2.59375t0.171875,2.8046875t0.0625,2.5078125t0.109375,1.7109375q0.0625,0.484375,0.2109375,1.0234375t0.1484375,0.9921875q0,0.125-0.1796875,0.2421875t-0.3828125,0.1953125t-0.4140625,0.125t-0.3046875,0.046875q-0.609375,0-0.8671875-0.9140625t-0.3203125-2.2890625t-0.0625-2.9765625t-0.109375-2.9765625t-0.4453125-2.2890625t-1.0703125-0.9453125q-0.671875,0-1.390625,0.8671875t-1.234375,2.3046875q-0.5,1.4375-0.6875,3.265625q-0.0625,0.578125-0.0625,1.15625q0,1.265625,0.265625,2.53125q0.03125,0.21875-0.1796875,0.328125t-0.5234375,0.171875t-0.6328125,0.078125t-0.4921875,0.015625q-0.609375,0-0.9765625-0.4296875t-0.5703125-1.1015625t-0.2734375-1.5078125t-0.0859375-1.6484375z M53.89078125,35.171875q0-1.0625,0.2890625-2.046875t0.8671875-1.7578125t1.4453125-1.234375t2.0078125-0.4609375q0.703125,0,1.5546875,0.2109375t1.6015625,0.625t1.25,1.0546875t0.5,1.46875q0,0.390625-0.1328125,0.59375t-0.5390625,0.203125l-0.171875-0.03125q0.453125,1.21875,0.78125,2.5t0.640625,2.5625q0.125,0.25,0.1875,0.4453125t0.0625,0.3828125q0,0.25-0.140625,0.4140625t-0.3671875,0.2421875t-0.46875,0.109375t-0.4296875,0.03125q-0.671875,0-1.0078125-0.234375t-0.484375-0.640625t-0.1796875-0.9140625t-0.125-1.0234375q-0.1875,0.609375-0.4921875,1.1875t-0.71875,1.0390625t-0.9765625,0.734375t-1.265625,0.2734375q-1.03125,0-1.734375-0.59375t-1.1328125-1.4609375t-0.625-1.8515625t-0.1953125-1.828125z M56.10953125,34.953125q0,0.578125,0.078125,1.21875t0.2578125,1.265625t0.4609375,1.1796875t0.703125,0.9765625q0.765625-0.828125,1.1328125-2.015625t0.65625-2.2890625t0.65625-1.890625t1.1328125-0.7890625q0.484375,0,0.8125,0.171875q-0.15625-0.390625-0.515625-0.7578125t-0.8046875-0.671875t-0.921875-0.5t-0.8984375-0.1953125q-0.125,0-0.2890625,0.0390625t-0.2578125,0.0078125q-0.640625,0.1875-1.0546875,0.6484375t-0.671875,1.0859375t-0.3671875,1.28125t-0.109375,1.234375z M67.4325,31.6875q0-0.453125,0.2578125-0.59375t0.6484375-0.140625q0.640625,0,0.9765625,0.2421875t0.3359375,0.8515625q0,0.734375,0.109375,1.8359375t0.3203125,2.140625t0.5,1.7890625t0.6015625,0.75q0.578125,0,1.0234375-0.890625t0.78125-2.1875t0.578125-2.7890625t0.3359375-2.6640625q0.0625-0.640625,0.3046875-0.9296875t0.8828125-0.2890625q0.734375,0,1.0703125,0.609375t0.4296875,1.5q0.078125,0.765625,0.078125,1.59375l0,0.265625l0,0.625q0,0.59375,0.015625,1.0625l0.453125,9.578125l0.0625,1.59375q0.03125,0.21875,0.046875,0.4140625t0.015625,0.4140625q0,0.890625-0.3828125,1.1484375t-1.2421875,0.2578125q-0.1875,0-0.4765625-0.03125t-0.5625-0.125t-0.46875-0.2578125t-0.1953125-0.4140625l0.0625-0.15625q0.078125-0.9375,0.078125-1.96875l0-0.328125q-0.015625-1.21875-0.078125-2.46875t-0.140625-2.5t-0.078125-2.40625q-0.21875,0.484375-0.5078125,1t-0.671875,0.9296875t-0.8671875,0.6875t-1.09375,0.2734375q-0.890625,0-1.46875-0.46875t-0.8984375-1.21875t-0.4609375-1.6796875t-0.1875-1.859375t-0.0625-1.7734375t-0.125-1.421875z M86.5471875,31.171875q0-2.6875,0.1484375-5.3125t0.3671875-5.3125q0.0625-0.703125,0.078125-1.359375t0.1484375-1.1484375t0.46875-0.78125t1.0390625-0.2890625q0.453125,0,0.9453125,0.15625t0.4921875,0.734375q0,2.171875-0.1796875,4.2734375t-0.2421875,4.1796875q1.703125-1.921875,3.640625-3.5859375t4.109375-3.2890625q0.3125-0.21875,0.796875-0.234375q0.15625,0,0.2734375,0.015625t0.2421875,0.046875q0.15625,0.0625,0.3203125,0.1484375t0.1640625,0.2421875q0,0.125-0.140625,0.21875q-1.625,1.3125-3.2109375,2.671875t-3.0234375,2.90625q0.1875,0.359375,0.3203125,0.671875t0.2890625,0.671875q1.3125,3.109375,2.2421875,6.3671875t1.9765625,6.4609375q0.09375,0.359375,0.2734375,0.7421875t0.3359375,0.765625t0.2734375,0.71875t0.1171875,0.5546875q0,0.28125-0.1796875,0.4453125t-0.4140625,0.2578125t-0.5078125,0.125t-0.5078125,0.03125q-0.546875,0-0.9765625-0.15625t-0.6796875-0.703125q-1.15625-3.6875-2.2265625-7.375t-2.1640625-7.4375q-0.359375,0.359375-0.71875,0.8984375t-0.65625,0.9921875q0,2.34375,0.109375,4.65625t0.375,4.65625q0.0625,0.671875,0.2109375,1.34375t0.1484375,1.375q0,0.515625-0.53125,0.71875t-1.171875,0.203125q-0.703125,0-1.0546875-0.140625t-0.5-0.3671875t-0.1796875-0.5t-0.09375-0.5234375q-0.359375-2.46875-0.453125-4.8828125t-0.09375-4.8515625z M101.91703125,33.796875q0-0.3125,0.0703125-0.828125t0.1640625-1.0234375t0.21875-0.9453125t0.296875-0.5625q0.125-0.125,0.4296875-0.25t0.640625-0.1796875t0.625,0.046875t0.3515625,0.4140625q-0.21875,0.28125-0.3984375,0.9609375t-0.2734375,1.5078125q-0.078125,0.703125-0.078125,1.453125l0,0.265625q0.015625,0.875,0.15625,1.609375t0.4296875,1.2109375t0.8046875,0.4765625q1.09375,0,2-1.0078125t1.609375-2.4609375t1.234375-3.0859375t0.90625-2.8515625q0.09375-0.359375,0.4453125-0.484375t0.7578125-0.0859375t0.7265625,0.1953125t0.3828125,0.375q-0.3125,2.625-0.4921875,5.25t-0.1796875,5.28125q0,0.515625,0.046875,0.9453125t-0.046875,0.734375t-0.4140625,0.484375t-1.0234375,0.1796875q-0.15625,0-0.3984375-0.03125t-0.5-0.1015625t-0.4375-0.2109375t-0.1796875-0.328125q0-1.15625,0.0859375-2.375t0.2421875-2.359375q-0.421875,0.609375-0.9296875,1.2109375t-1.1171875,1.0859375t-1.3125,0.7734375t-1.515625,0.2890625q-1.15625,0-1.8203125-0.546875t-1-1.3671875t-0.421875-1.7890625t-0.0859375-1.875z M116.6540625,31.2578125q-0.0390625-0.5234375,0.0625-0.9609375t0.40625-0.7109375t0.9765625-0.2734375q0.15625,0,0.3828125,0.0390625t0.4453125,0.1015625t0.3671875,0.1875t0.1484375,0.34375l0,1.765625q0.609375-0.703125,1.328125-1.0078125t1.640625-0.3046875q0.703125,0,1.390625,0.3203125t1.296875,0.8515625t1.0546875,1.171875t0.6484375,1.28125q0.125-0.578125,0.28125-1.4140625t0.4609375-1.6015625t0.8046875-1.3125t1.328125-0.546875q0.890625,0,1.5,0.640625t0.9921875,1.6640625t0.578125,2.2890625t0.2890625,2.5t0.09375,2.3046875l0,1.6796875q0,0.1875-0.140625,0.3046875t-0.3515625,0.1796875t-0.4375,0.078125t-0.3515625,0.015625q-0.484375,0-0.8828125-0.1484375t-0.3984375-0.7578125l0-1.40625t-0.03125-1.8203125t-0.109375-1.953125t-0.203125-1.7734375t-0.3203125-1.28125t-0.4765625-0.5q-0.390625,0-0.5625,0.4375t-0.2890625,1.109375t-0.1796875,1.421875t-0.171875,1.421875t-0.3515625,1.1015625t-0.6640625,0.4296875q-0.453125,0-0.796875-0.4296875t-0.6796875-1.0703125t-0.671875-1.375t-0.7421875-1.375q-0.40625-0.65625-0.875-1.0625q-0.421875-0.390625-0.953125-0.375l-0.078125,0q-0.703125,0.03125-1.1015625,0.5078125t-0.609375,1.1640625t-0.2578125,1.4765625t-0.046875,1.3828125q0,0.5625,0.09375,1.3125q0.0625,0.5,0.0625,0.953125q0,0.234375-0.015625,0.453125q-0.046875,0.65625-0.3515625,1.1015625t-1.1328125,0.4453125q-0.3125,0-0.78125-0.0625t-0.625-0.421875q-0.359375-0.640625-0.546875-1.6171875t-0.28125-2.015625t-0.109375-2.0625t-0.015625-1.7578125q0-0.515625-0.0390625-1.0390625z M136.35984375,35.171875q0-1.0625,0.2890625-2.046875t0.8671875-1.7578125t1.4453125-1.234375t2.0078125-0.4609375q0.703125,0,1.5546875,0.2109375t1.6015625,0.625t1.25,1.0546875t0.5,1.46875q0,0.390625-0.1328125,0.59375t-0.5390625,0.203125l-0.171875-0.03125q0.453125,1.21875,0.78125,2.5t0.640625,2.5625q0.125,0.25,0.1875,0.4453125t0.0625,0.3828125q0,0.25-0.140625,0.4140625t-0.3671875,0.2421875t-0.46875,0.109375t-0.4296875,0.03125q-0.671875,0-1.0078125-0.234375t-0.484375-0.640625t-0.1796875-0.9140625t-0.125-1.0234375q-0.1875,0.609375-0.4921875,1.1875t-0.71875,1.0390625t-0.9765625,0.734375t-1.265625,0.2734375q-1.03125,0-1.734375-0.59375t-1.1328125-1.4609375t-0.625-1.8515625t-0.1953125-1.828125z M138.57859375,34.953125q0,0.578125,0.078125,1.21875t0.2578125,1.265625t0.4609375,1.1796875t0.703125,0.9765625q0.765625-0.828125,1.1328125-2.015625t0.65625-2.2890625t0.65625-1.890625t1.1328125-0.7890625q0.484375,0,0.8125,0.171875q-0.15625-0.390625-0.515625-0.7578125t-0.8046875-0.671875t-0.921875-0.5t-0.8984375-0.1953125q-0.125,0-0.2890625,0.0390625t-0.2578125,0.0078125q-0.640625,0.1875-1.0546875,0.6484375t-0.671875,1.0859375t-0.3671875,1.28125t-0.109375,1.234375z M149.9015625,30.796875q0-0.640625,0.2265625-1.078125t0.9609375-0.4375q0.28125,0,0.703125,0.0859375t0.484375,0.4296875q0.15625,0.921875,0.171875,2t0.109375,2.03125q0.359375-0.703125,0.921875-1.515625t1.28125-1.5t1.5625-1.140625t1.71875-0.453125q0.0625,0,0.234375,0.046875t0.3203125,0.1328125t0.1796875,0.1953125t-0.171875,0.203125q-0.0625,0.1875-0.265625,0.2265625t-0.359375,0.0390625q-0.09375,0-0.296875-0.078125q-1.15625,0.609375-1.96875,1.65625t-1.328125,2.3203125t-0.75,2.6875t-0.234375,2.7578125q0,0.671875-0.3046875,0.8125t-0.9765625,0.140625q-0.359375,0-0.7578125-0.078125t-0.5546875-0.5q-0.28125-0.890625-0.4609375-2.046875t-0.2734375-2.3828125t-0.1328125-2.4140625t-0.0390625-2.140625z M167.11,26.796875l0-1.203125l0-1.234375q0.015625-1.25,0.1015625-2.3984375t0.2421875-1.9140625q0.09375-0.421875,0.5625-0.515625t0.8125-0.09375q0.640625,0,0.9453125,0.15625t0.3984375,0.4453125t0.078125,0.6875t-0.015625,0.9140625q0,0.734375-0.03125,2.046875t-0.046875,2.90625l0,0.796875q0,1.203125,0.03125,2.484375q0.046875,1.71875,0.1796875,3.2890625t0.3671875,2.828125t0.65625,1.9296875q0.671875-0.609375,1.34375-1.7109375t1.28125-2.4765625t1.1640625-2.8984375t1.0078125-2.9765625t0.7734375-2.734375t0.4765625-2.171875q0.25-1.28125,0.3359375-2.609375t0.0859375-2.953125q0.484375-0.578125,0.75-0.7265625t0.84375-0.1484375q0.28125,0,0.5703125,0.046875t0.5546875,0.21875l0.21875,0.34375l0,0.390625q0,2.84375-0.2734375,5.7734375t-0.578125,5.890625t-0.578125,5.9375t-0.2734375,5.9140625q0,0.453125,0.0390625,0.9609375t0.1640625,0.9609375l-0.0625,0.1875q-0.21875,0.359375-0.71875,0.453125t-0.859375,0.09375q-0.765625,0-1.1484375-0.2265625t-0.5078125-0.625t-0.109375-0.921875t0.015625-1.1328125q0-2.109375,0.1875-4.2890625t0.453125-4.2890625q-0.25,0.734375-0.59375,1.7734375t-0.8046875,2.078125t-1.0703125,1.90625t-1.34375,1.2421875l0.03125-0.03125l-0.125,0.0625l0.03125,0q-0.453125,0.25-0.8359375,0.3359375t-0.8984375,0.0859375q-1.03125,0-1.7109375-0.609375t-1.1015625-1.5703125t-0.625-2.15625t-0.2890625-2.3984375t-0.0859375-2.2890625l0-1.7890625q0-0.859375-0.015625-2.046875z M172.6725,39.234375q0.03125,0,0.03125-0.03125l0.03125,0q-0.03125,0.03125-0.0625,0.03125z"/><path fill="#" d=""/></svg>
